<?xml version="1.0" standalone="no"?>
<!DOCTYPE svg PUBLIC "-//W3C//DTD SVG 20010904//EN"
 "http://www.w3.org/TR/2001/REC-SVG-20010904/DTD/svg10.dtd">
<svg version="1.0" xmlns="http://www.w3.org/2000/svg"
 width="1001.000000pt" height="1001.000000pt" viewBox="0 0 1001.000000 1001.000000"
 preserveAspectRatio="xMidYMid meet">
<metadata>
Created by potrace 1.14, written by Peter Selinger 2001-2017
</metadata>
<g transform="translate(0.000000,1001.000000) scale(0.100000,-0.100000)"
fill="#000000" stroke="none">
<path d="M1056 7533 c-163 -28 -348 -164 -424 -310 -17 -35 -29 -63 -26 -63 4
0 2 -6 -5 -13 -6 -7 -13 -40 -17 -73 -9 -90 -10 -314 -1 -314 5 0 5 -6 0 -12
-11 -18 -12 -68 -1 -68 5 0 6 -6 1 -12 -11 -18 -12 -68 -1 -68 5 0 6 -6 1 -12
-11 -18 -12 -68 -1 -68 5 0 6 -6 1 -12 -11 -18 -12 -68 -1 -68 5 0 6 -6 1 -12
-11 -18 -12 -68 -1 -68 5 0 6 -6 1 -12 -11 -18 -12 -68 -1 -68 5 0 6 -6 1 -12
-11 -18 -12 -68 -1 -68 5 0 6 -5 2 -12 -10 -16 -11 -1348 -1 -1348 5 0 5 -6 0
-12 -11 -18 -12 -68 -1 -68 5 0 6 -6 1 -12 -11 -18 -12 -68 -1 -68 5 0 6 -6 1
-12 -11 -18 -12 -68 -1 -68 5 0 6 -6 1 -12 -11 -18 -12 -68 -1 -68 5 0 6 -6 1
-12 -11 -18 -12 -68 -1 -68 5 0 6 -6 1 -12 -11 -18 -12 -68 -1 -68 5 0 6 -6 1
-12 -11 -19 -12 -68 0 -68 6 0 6 -5 1 -12 -10 -14 -10 -1105 0 -1180 3 -26 10
-57 15 -70 19 -47 24 -63 23 -70 -1 -5 3 -8 8 -8 6 0 10 -5 10 -11 0 -6 9 -24
21 -40 11 -16 18 -29 15 -29 -3 0 14 -20 38 -45 24 -24 41 -47 38 -50 -3 -3 0
-5 7 -5 6 0 22 -9 34 -21 42 -39 149 -92 216 -106 154 -33 342 -8 454 60 82
49 157 121 188 179 6 12 15 25 19 28 12 9 58 135 65 180 8 57 10 1273 2 1287
-4 6 -4 13 0 16 8 9 8 931 -1 945 -3 6 -2 13 2 16 5 3 7 24 5 46 -4 45 7 51
30 18 8 -13 23 -32 33 -43 11 -11 48 -54 84 -95 36 -41 70 -80 75 -86 6 -6 28
-32 50 -59 22 -26 55 -63 72 -81 18 -19 31 -34 28 -34 -3 0 10 -15 28 -34 17
-18 51 -55 73 -82 23 -27 52 -60 64 -74 12 -14 52 -60 88 -102 37 -43 70 -78
74 -78 5 0 8 -6 8 -13 0 -8 12 -25 28 -40 15 -14 45 -47 67 -73 22 -26 49 -57
60 -70 11 -12 27 -31 35 -41 17 -19 148 -171 165 -189 5 -7 30 -35 55 -64 25
-29 53 -62 64 -74 10 -12 37 -43 60 -70 22 -27 56 -64 73 -82 18 -19 30 -34
27 -34 -3 0 15 -21 40 -46 25 -25 46 -49 46 -52 0 -4 20 -28 43 -53 23 -25 62
-69 87 -98 25 -29 58 -67 73 -84 16 -18 43 -49 60 -70 18 -21 41 -49 52 -61
11 -12 43 -48 70 -81 28 -32 65 -73 83 -92 17 -18 32 -37 32 -41 0 -4 9 -14
20 -22 11 -8 20 -21 20 -29 0 -8 3 -11 7 -8 3 4 14 -4 22 -17 9 -14 32 -42 51
-63 19 -21 78 -87 130 -148 51 -60 105 -123 119 -138 61 -66 190 -137 284
-157 78 -16 218 -14 292 4 60 15 74 11 75 -21 0 -6 14 -22 32 -34 l32 -23
1066 0 c586 1 1101 4 1145 7 44 4 103 9 130 12 104 11 340 64 400 90 17 7 44
17 60 21 17 4 51 18 78 31 26 13 47 20 47 16 0 -5 4 -3 8 3 8 12 70 44 85 44
6 0 0 -8 -11 -19 -12 -10 -19 -21 -15 -25 3 -3 -1 -6 -10 -6 -9 0 -17 -4 -17
-8 0 -5 -23 -33 -50 -62 -28 -29 -50 -55 -50 -56 0 -2 -10 -20 -22 -41 -26
-44 -29 -52 -32 -118 -2 -50 5 -101 23 -146 5 -13 8 -26 8 -29 -1 -7 36 -73
51 -88 6 -7 12 -17 12 -22 0 -5 36 -46 80 -91 44 -45 80 -79 80 -75 0 4 9 -1
19 -11 21 -19 62 -41 121 -66 84 -36 116 -42 205 -42 56 0 81 6 126 27 30 15
61 39 69 53 7 13 17 22 22 19 4 -3 8 -1 8 4 0 5 19 30 43 55 23 25 62 69 87
98 25 28 56 63 70 78 14 14 46 51 72 81 26 30 59 69 73 85 15 17 45 52 68 79
23 27 53 61 67 76 14 15 43 49 65 74 22 26 51 60 65 75 14 15 50 56 80 91 30
35 69 78 87 97 17 18 29 33 27 33 -3 0 5 11 18 24 13 13 39 41 58 63 19 22 61
69 92 104 65 73 78 88 133 154 22 26 54 62 70 80 17 17 41 45 55 61 14 16 50
59 82 95 77 89 100 136 103 212 3 61 -24 176 -47 205 -6 6 -7 12 -4 12 4 0 0
7 -8 16 -9 8 -16 21 -16 28 0 6 -9 18 -20 26 -11 8 -20 20 -20 26 0 10 -114
123 -186 184 -16 14 -41 35 -55 47 l-27 23 -21 -22 c-11 -13 -29 -34 -39 -47
-19 -24 -20 -24 -45 -8 -14 9 -37 27 -52 41 l-27 25 -34 -37 c-26 -29 -41 -37
-73 -39 -94 -4 -151 -25 -196 -71 -51 -53 -95 -102 -91 -102 3 0 -10 -15 -27
-33 -60 -62 -117 -131 -117 -139 0 -5 -4 -6 -10 -3 -5 3 -10 2 -10 -4 0 -5
-11 -22 -25 -37 -14 -16 -43 -48 -63 -72 -45 -53 -74 -86 -129 -146 -24 -26
-43 -48 -43 -51 0 -2 -10 -15 -23 -29 -16 -17 -24 -21 -24 -11 0 8 4 15 8 15
4 0 6 8 4 18 -1 9 3 28 10 42 11 22 17 46 40 165 20 99 26 378 11 465 -5 25
-9 57 -10 73 0 15 -4 27 -8 27 -4 0 -6 8 -6 18 1 14 -9 52 -27 112 -1 3 -5 13
-9 22 -4 9 -9 23 -10 31 -1 8 -8 22 -15 31 -7 9 -10 16 -7 16 4 0 1 10 -6 23
-7 12 -12 25 -13 29 0 4 -6 13 -12 19 -7 7 -13 17 -13 22 0 14 -101 167 -111
167 -5 0 -9 5 -9 11 0 21 -183 194 -232 220 -12 6 -25 15 -28 18 -7 9 -64 45
-70 44 -3 0 -16 7 -30 17 -30 21 -163 80 -182 80 -13 0 30 39 44 40 27 1 232
185 291 262 31 39 112 170 112 180 0 5 7 13 15 18 8 5 12 10 8 10 -4 0 6 30
23 67 16 36 31 73 32 82 1 9 5 21 8 26 4 6 10 28 14 50 5 22 9 45 11 50 39
140 30 411 -22 595 -21 76 -19 72 -33 105 -7 17 -14 35 -15 41 -2 13 -68 146
-76 154 -3 3 -11 17 -19 33 -8 15 -18 27 -23 27 -4 0 -8 7 -8 16 0 31 -221
237 -318 297 -81 51 -209 117 -225 117 -3 0 -18 5 -34 12 -15 6 -30 12 -33 13
-3 0 -34 10 -70 22 -60 19 -86 26 -148 38 -13 2 -31 6 -40 9 -9 3 -37 8 -62
12 -25 3 -61 9 -80 12 -19 3 -538 7 -1153 9 -1094 3 -1119 4 -1158 23 -94 48
-294 60 -408 25 -143 -44 -292 -166 -359 -292 -18 -35 -30 -63 -26 -63 3 0 1
-6 -5 -13 -6 -8 -8 -17 -4 -20 3 -4 2 -7 -4 -7 -5 0 -9 -16 -8 -35 0 -19 -2
-35 -5 -35 -3 0 -5 -513 -5 -1140 0 -627 -2 -1140 -5 -1140 -4 0 -17 12 -30
28 -81 95 -146 167 -152 170 -5 2 -8 8 -8 13 0 4 -15 23 -32 41 -18 19 -53 58
-78 88 -25 30 -56 66 -70 81 -14 15 -39 45 -57 66 -17 21 -43 52 -57 68 -14
17 -26 33 -26 38 0 4 -6 7 -14 7 -8 0 -18 9 -21 20 -3 11 -11 20 -17 20 -6 0
-9 2 -6 5 3 3 -11 23 -31 44 -46 48 -111 123 -111 127 0 2 -15 19 -32 37 -18
19 -46 51 -63 72 -16 21 -35 44 -42 50 -6 7 -30 34 -53 61 -23 27 -64 74 -90
104 -27 30 -58 66 -70 80 -63 75 -110 129 -147 169 -23 25 -43 50 -43 54 0 4
-16 21 -35 38 -19 17 -35 35 -35 40 0 4 -16 23 -35 42 -19 19 -35 37 -35 40 0
3 -15 21 -32 39 -18 19 -49 54 -68 77 -19 24 -45 53 -57 64 -13 11 -23 27 -23
34 0 8 -4 11 -10 8 -5 -3 -10 -2 -10 4 0 6 -10 21 -22 33 -13 13 -43 47 -68
77 -25 29 -54 63 -65 75 -11 12 -38 44 -60 70 -22 26 -49 58 -60 70 -11 12
-42 48 -70 80 -59 69 -65 76 -127 147 -84 97 -88 102 -88 111 0 5 -4 6 -10 3
-5 -3 -10 -1 -10 6 0 10 -74 87 -141 145 -13 12 -58 39 -99 62 -133 71 -249
90 -394 65z m5599 -867 c90 -14 238 -70 308 -115 69 -46 145 -122 177 -179 8
-15 18 -29 21 -32 3 -3 11 -21 18 -40 7 -19 17 -44 21 -55 11 -25 24 -93 24
-122 0 -13 2 -23 5 -23 9 0 5 -169 -4 -215 -4 -22 -9 -47 -11 -55 -12 -63 -62
-168 -101 -210 -13 -14 -23 -28 -23 -32 0 -13 -134 -113 -181 -136 -48 -23
-149 -60 -182 -67 -10 -2 -26 -6 -35 -9 -9 -3 -36 -8 -59 -11 -23 -3 -57 -8
-75 -12 -51 -9 -894 -14 -883 -6 14 11 17 33 5 33 -6 0 -6 9 -1 23 5 13 5 30
1 37 -5 9 -4 20 2 27 6 7 7 13 2 13 -5 0 -9 20 -9 45 0 25 4 45 9 45 5 0 4 6
-2 13 -6 7 -7 18 -2 26 4 8 6 21 2 29 -8 21 -7 76 2 90 4 7 2 12 -4 12 -8 0
-8 6 0 20 6 11 7 20 2 20 -4 0 -8 9 -8 20 0 11 4 20 9 20 5 0 4 6 -2 14 -8 9
-8 22 -2 38 5 14 6 31 1 38 -5 9 -4 20 2 27 6 7 6 13 1 13 -5 0 -9 9 -9 20 0
11 3 20 6 20 3 0 4 17 2 38 -1 20 -3 43 -2 50 0 21 0 42 -1 55 -1 6 -1 28 0
47 1 19 1 43 1 53 0 9 0 23 0 30 0 6 0 30 -2 53 -1 22 2 45 6 52 4 7 2 12 -4
12 -8 0 -8 6 0 20 6 11 7 20 2 20 -4 0 -8 9 -8 20 0 11 4 20 9 20 5 0 4 6 -2
14 -8 9 -8 22 -2 38 5 14 6 31 1 38 -5 9 -4 20 2 27 6 7 6 13 1 13 -5 0 -9 9
-9 20 0 11 3 20 7 20 3 0 4 12 1 26 l-5 25 469 -4 c258 -3 487 -8 509 -11z
m30 -2000 c65 -7 76 -8 215 -32 95 -17 316 -112 327 -141 3 -7 10 -13 15 -13
23 0 148 -150 148 -177 0 -7 5 -13 12 -13 6 0 8 -3 5 -7 -4 -3 -3 -11 2 -17 5
-6 14 -30 20 -53 36 -132 33 -330 -5 -421 -8 -20 -16 -39 -16 -42 -1 -3 -8
-21 -16 -40 -9 -19 -15 -39 -14 -43 2 -5 -2 -6 -7 -3 -5 4 -12 -3 -16 -14 -3
-11 -11 -20 -16 -20 -5 0 -8 -4 -7 -9 4 -12 -124 -131 -140 -131 -5 0 -18 -9
-30 -20 -12 -12 -22 -19 -22 -16 0 3 -24 -6 -52 -19 -69 -31 -210 -71 -278
-79 -30 -4 -73 -10 -95 -13 -44 -7 -987 -11 -1021 -5 -21 4 -25 26 -10 50 4 6
3 12 -2 12 -9 0 -9 61 1 76 3 6 2 16 -3 24 -5 8 -5 22 1 32 5 10 6 18 1 18
-10 0 -9 30 2 48 4 6 3 12 -3 12 -7 0 -7 8 -2 23 5 13 5 30 1 37 -5 9 -4 20 2
27 6 7 6 13 1 13 -5 0 -9 9 -9 20 0 11 3 20 6 20 3 0 4 17 2 38 -1 20 -3 43
-2 50 1 29 0 39 -2 78 -1 22 2 45 6 52 4 7 2 12 -4 12 -8 0 -8 6 0 20 6 11 7
20 2 20 -4 0 -8 9 -8 20 0 11 4 20 9 20 5 0 4 6 -2 14 -8 9 -8 22 -2 38 5 14
6 31 1 38 -5 9 -4 20 2 27 6 7 6 13 1 13 -5 0 -9 9 -9 20 0 11 3 20 6 20 7 0
4 80 -4 87 -3 3 -1 12 5 20 7 7 7 13 2 13 -9 0 -8 69 1 96 2 6 0 17 -4 25 -5
8 -4 19 2 26 6 8 6 13 1 13 -9 0 -6 90 3 99 2 2 -1 12 -6 22 -24 43 -11 44
481 43 255 -1 491 -4 524 -8z"/>
</g>
</svg>
